<!-- Created with <3 by Skiletro --><svg xmlns="http://www.w3.org/2000/svg" viewBox="0 0 485 485"><defs><style>.cls-1{fill:#fff;}.cls-2{fill:#202225;}</style></defs><title>DBLlogo_dark</title><g id="Layer_2" data-name="Layer 2"><rect class="cls-1" width="485" height="485" rx="20" ry="20"/></g><g id="Layer_1" data-name="Layer 1"><path class="cls-2" d="M454.52,306.7c-4.22-27.9-15.89-77.14-48.25-118.69-3.56-10.85-10.85-27.48-25.17-39.65,4.39-7.94,10.52-20.28,14-33.19-.49,0-.91.08-1.4.08a25.91,25.91,0,0,1-8.45-1.49,153.55,153.55,0,0,1-11.92,28.89c-9.93-6.21-22.43-10.26-38.15-10.1-23.92-10.34-52.31-16.8-86.33-17.3H248c-33.43.5-61.49,7-84.92,17.3-16-.25-28.72,3.81-38.65,10.1a149,149,0,0,1-11.92-28.89,23.69,23.69,0,0,1-8.44,1.49c-.5,0-.91-.08-1.41-.08,3.48,12.91,9.6,25.25,14,33.19-16,13.66-23.26,32.69-26.24,43.21-29.88,40.8-40.88,88.06-44.94,115.13a67.74,67.74,0,0,0,11.67,49.24C107.23,425.72,237,432.5,248,433h.83c11.09-.41,142.86-7.28,193.76-77.06A66.74,66.74,0,0,0,454.52,306.7Zm-51.15,32c-40.81,44-146.5,48.33-155.44,48.66h-.66c-8.86-.24-112.9-4.63-153.12-48.66-8.2-8.94-11.42-20.12-9.36-31,6.46-34.1,35.26-119.27,162.56-120.84H248c129.12,1.57,158.42,86.74,165,120.84C415,318.61,411.65,329.79,403.37,338.73Z" transform="translate(-7.5 -7.5)"/><path class="cls-2" d="M195,266.31c-26.9-9.11-41.63-1.16-49.74,6.78a17.71,17.71,0,0,0-2.65,22.1c4.8,7.53,15.06,16.64,37,23.18,43.7,13,48.83-14.32,48.83-14.32S237.42,280.62,195,266.31Z" transform="translate(-7.5 -7.5)"/><path class="cls-2" d="M302.56,266.31c-42.71,14.31-33.69,37.74-33.69,37.74s5.22,27.31,49.17,14.32c22-6.54,32.36-15.65,37.24-23.18a17.59,17.59,0,0,0-2.65-22.1C344.52,265.15,329.62,257.2,302.56,266.31Z" transform="translate(-7.5 -7.5)"/><ellipse class="cls-2" cx="96.58" cy="82.26" rx="22.51" ry="22.76"/><ellipse class="cls-2" cx="386.1" cy="82.26" rx="22.51" ry="22.76"/></g></svg>