<?xml version="1.0" standalone="no"?>
<!DOCTYPE svg PUBLIC "-//W3C//DTD SVG 20010904//EN"
 "http://www.w3.org/TR/2001/REC-SVG-20010904/DTD/svg10.dtd">
<svg version="1.0" xmlns="http://www.w3.org/2000/svg"
 width="1024.000000pt" height="1024.000000pt" viewBox="0 0 1024.000000 1024.000000"
 preserveAspectRatio="xMidYMid meet">
<metadata>
Created by potrace 1.11, written by Peter Selinger 2001-2013
</metadata>
<g transform="translate(0.000000,1024.000000) scale(0.100000,-0.100000)"
fill="#000000" stroke="none">
<path d="M310 10224 c-143 -39 -258 -155 -295 -300 -13 -54 -15 -559 -13
-4829 l3 -4770 21 -52 c47 -114 148 -212 257 -250 50 -17 256 -18 4837 -18
4581 0 4787 1 4837 18 113 39 221 147 260 260 17 50 18 256 18 4837 0 4581 -1
4787 -18 4837 -38 109 -136 210 -250 257 l-52 21 -4775 2 c-4180 2 -4782 0
-4830 -13z m1861 -1260 c202 -59 339 -244 339 -458 0 -193 -98 -353 -265 -433
-161 -76 -323 -65 -470 33 -149 98 -230 285 -205 467 26 178 157 333 330 388
70 23 199 24 271 3z m6120 -4 c223 -68 368 -301 329 -528 -44 -265 -286 -445
-539 -402 -183 31 -335 166 -386 344 -13 45 -16 84 -13 157 4 85 9 106 41 173
59 125 162 217 285 257 78 25 201 25 283 -1z m-6045 -1052 c40 -122 99 -268
160 -397 30 -63 56 -116 58 -119 2 -2 37 15 78 37 191 104 452 170 673 171 58
0 86 6 152 34 307 130 716 237 1093 285 248 33 390 42 635 41 595 0 1168 -104
1685 -305 125 -48 144 -52 245 -58 260 -15 407 -58 696 -205 17 -8 195 406
240 556 11 40 15 43 38 38 14 -4 61 -9 104 -13 42 -3 77 -10 77 -14 0 -5 -14
-53 -31 -106 -40 -126 -136 -350 -205 -482 l-55 -104 63 -61 c176 -168 334
-417 431 -677 29 -77 57 -125 136 -235 444 -618 763 -1427 907 -2299 23 -143
25 -178 21 -330 -8 -239 -40 -373 -142 -580 -119 -241 -346 -501 -640 -730
-633 -495 -1618 -855 -2805 -1024 -419 -60 -756 -81 -985 -62 -1273 110 -2378
444 -3115 942 -406 274 -727 623 -857 933 -147 346 -149 648 -12 1246 105 460
253 882 443 1267 115 232 179 344 312 545 88 133 110 174 143 270 99 287 233
509 423 704 l89 92 -70 140 c-86 172 -139 298 -185 442 -20 60 -36 112 -36
115 0 3 28 5 63 6 34 1 73 5 87 9 53 17 57 14 86 -72z"/>
<path d="M4720 6439 c-177 -15 -369 -39 -510 -65 -985 -181 -1731 -668 -2181
-1426 -180 -302 -319 -662 -388 -1005 -56 -272 10 -502 205 -712 466 -505
1502 -866 2829 -985 293 -27 417 -29 645 -12 1398 106 2472 453 2991 966 224
221 301 466 238 758 -119 560 -389 1084 -763 1479 -527 558 -1253 884 -2206
989 -171 18 -703 27 -860 13z m-1064 -1590 c232 -32 522 -142 712 -269 340
-227 411 -573 168 -816 -112 -111 -247 -158 -461 -157 -229 0 -498 68 -761
193 -157 74 -261 145 -360 244 -110 111 -148 187 -152 306 -3 68 0 96 18 143
42 112 149 213 306 289 143 69 339 94 530 67z m3194 0 c88 -14 218 -59 287
-100 93 -55 196 -159 229 -231 25 -55 29 -75 29 -153 0 -77 -4 -98 -27 -148
-33 -70 -50 -93 -135 -180 -182 -185 -523 -341 -898 -413 -136 -26 -338 -24
-440 5 -162 45 -281 137 -342 262 -53 110 -64 200 -38 304 49 190 201 347 460
475 180 88 414 162 580 183 66 8 234 6 295 -4z"/>
</g>
</svg>
