<?xml version="1.0" standalone="no"?>
<!DOCTYPE svg PUBLIC "-//W3C//DTD SVG 20010904//EN"
 "http://www.w3.org/TR/2001/REC-SVG-20010904/DTD/svg10.dtd">
<svg version="1.0" xmlns="http://www.w3.org/2000/svg"
 width="512.000000pt" height="512.000000pt" viewBox="0 0 512.000000 512.000000"
 preserveAspectRatio="xMidYMid meet">
<metadata>
Created by potrace 1.11, written by Peter Selinger 2001-2013
</metadata>
<g transform="translate(0.000000,512.000000) scale(0.100000,-0.100000)"
fill="#000000" stroke="none">
<path d="M215 4991 c-48 -22 -69 -44 -90 -94 -13 -32 -15 -289 -15 -2337 0
-2048 2 -2305 15 -2337 21 -50 42 -72 90 -94 38 -18 129 -19 2345 -19 2216 0
2307 1 2345 19 48 22 69 44 90 94 13 32 15 289 15 2339 0 2213 -1 2305 -19
2343 -22 48 -44 69 -94 90 -32 13 -289 15 -2339 15 -2213 0 -2305 -1 -2343
-19z m1637 -1446 c368 -55 558 -263 558 -609 -1 -281 -117 -473 -356 -586
-121 -57 -206 -72 -441 -77 l-213 -5 0 -334 0 -334 -220 0 -220 0 0 980 0 980
398 0 c297 0 421 -4 494 -15z m1783 0 c174 -26 274 -67 363 -148 168 -155 170
-452 5 -628 -43 -46 -166 -119 -199 -119 -8 0 -14 -4 -14 -8 0 -4 27 -13 59
-20 81 -17 196 -76 249 -129 179 -179 148 -556 -60 -725 -86 -69 -174 -110
-318 -145 -53 -13 -148 -17 -517 -20 l-453 -4 0 980 0 981 393 0 c297 0 416
-4 492 -15z"/>
<path d="M1400 2915 l0 -297 173 4 c149 4 180 8 231 28 117 45 176 139 176
279 0 92 -22 151 -75 200 -64 59 -118 72 -327 78 l-178 6 0 -298z"/>
<path d="M3190 2989 l0 -221 158 5 c171 5 212 15 268 60 50 42 74 97 74 175 0
158 -75 202 -347 202 l-153 0 0 -221z"/>
<path d="M3190 2199 l0 -251 198 4 c181 3 201 5 249 27 63 28 117 85 134 139
6 22 10 73 8 115 -4 66 -8 80 -35 114 -63 80 -152 103 -396 103 l-158 0 0
-251z"/>
</g>
</svg>
